<svg xmlns="http://www.w3.org/2000/svg" xmlns:xlink="http://www.w3.org/1999/xlink" width="150" zoomAndPan="magnify" viewBox="0 0 112.5 37.5" height="50" preserveAspectRatio="xMidYMid meet" version="1.0"><defs><g/></defs><g fill="#06e0d9" fill-opacity="1"><g transform="translate(4.194079, 33.518679)"><g><path d="M 0 -24.40625 C 0.695312 -24.40625 1.472656 -24.648438 2.328125 -25.140625 C 3.191406 -25.628906 4.066406 -26.238281 4.953125 -26.96875 C 5.835938 -27.707031 6.675781 -28.4375 7.46875 -29.15625 C 8.257812 -29.875 8.957031 -30.476562 9.5625 -30.96875 C 10.164062 -31.457031 10.601562 -31.703125 10.875 -31.703125 C 11.320312 -31.703125 11.546875 -31.421875 11.546875 -30.859375 L 11.546875 -24.40625 L 14.546875 -24.40625 L 14.546875 -22.671875 L 11.546875 -22.671875 L 11.546875 -8.578125 C 11.546875 -7.671875 11.554688 -6.765625 11.578125 -5.859375 C 11.597656 -4.953125 11.722656 -4.140625 11.953125 -3.421875 C 12.191406 -2.703125 12.613281 -2.144531 13.21875 -1.75 C 13.351562 -1.65625 13.492188 -1.609375 13.640625 -1.609375 C 13.796875 -1.609375 13.957031 -1.582031 14.125 -1.53125 C 14.070312 -1.113281 13.84375 -0.75 13.4375 -0.4375 C 13.03125 -0.125 12.546875 0.109375 11.984375 0.265625 C 11.429688 0.429688 10.878906 0.515625 10.328125 0.515625 C 8.648438 0.515625 7.304688 0.238281 6.296875 -0.3125 C 5.285156 -0.875 4.515625 -1.625 3.984375 -2.5625 C 3.460938 -3.5 3.113281 -4.550781 2.9375 -5.71875 C 2.769531 -6.882812 2.6875 -8.054688 2.6875 -9.234375 L 2.6875 -20.4375 C 2.6875 -20.78125 2.664062 -21.125 2.625 -21.46875 C 2.59375 -21.820312 2.46875 -22.109375 2.25 -22.328125 C 2.03125 -22.554688 1.640625 -22.671875 1.078125 -22.671875 L 0 -22.671875 Z M 0 -24.40625 "/></g></g></g><g fill="#06e0d9" fill-opacity="1"><g transform="translate(19.082337, 33.518679)"><g><path d="M 0.171875 -24.40625 L 11.859375 -24.40625 C 11.390625 -23.945312 11.066406 -23.394531 10.890625 -22.75 C 10.722656 -22.113281 10.640625 -21.296875 10.640625 -20.296875 L 10.640625 -8.96875 C 10.640625 -8.175781 10.773438 -7.457031 11.046875 -6.8125 C 11.328125 -6.175781 11.851562 -5.859375 12.625 -5.859375 C 13.15625 -5.859375 13.65625 -6.003906 14.125 -6.296875 C 14.59375 -6.585938 14.96875 -7.09375 15.25 -7.8125 C 15.539062 -8.53125 15.6875 -9.53125 15.6875 -10.8125 L 15.6875 -20.296875 C 15.6875 -21.296875 15.597656 -22.113281 15.421875 -22.75 C 15.253906 -23.394531 14.9375 -23.945312 14.46875 -24.40625 L 26.15625 -24.40625 C 25.6875 -23.945312 25.363281 -23.394531 25.1875 -22.75 C 25.019531 -22.113281 24.9375 -21.296875 24.9375 -20.296875 L 24.9375 -4.109375 C 24.9375 -3.109375 25.019531 -2.289062 25.1875 -1.65625 C 25.363281 -1.019531 25.6875 -0.46875 26.15625 0 L 17.609375 0 C 16.867188 0 16.363281 -0.257812 16.09375 -0.78125 C 15.820312 -1.300781 15.6875 -2.003906 15.6875 -2.890625 L 15.6875 -3.484375 C 15.6875 -3.898438 15.660156 -4.144531 15.609375 -4.21875 C 15.566406 -4.289062 15.515625 -4.328125 15.453125 -4.328125 C 15.171875 -4.328125 14.894531 -4.160156 14.625 -3.828125 C 14.363281 -3.503906 14.050781 -3.101562 13.6875 -2.625 C 13.320312 -2.15625 12.878906 -1.675781 12.359375 -1.1875 C 11.835938 -0.695312 11.175781 -0.289062 10.375 0.03125 C 9.570312 0.351562 8.578125 0.515625 7.390625 0.515625 C 6.109375 0.515625 5.078125 0.269531 4.296875 -0.21875 C 3.523438 -0.71875 2.929688 -1.378906 2.515625 -2.203125 C 2.097656 -3.035156 1.8125 -3.925781 1.65625 -4.875 C 1.507812 -5.832031 1.4375 -6.765625 1.4375 -7.671875 L 1.390625 -14.328125 L 1.390625 -20.296875 C 1.390625 -21.296875 1.300781 -22.113281 1.125 -22.75 C 0.957031 -23.394531 0.640625 -23.945312 0.171875 -24.40625 Z M 0.171875 -24.40625 "/></g></g></g><g fill="#06e0d9" fill-opacity="1"><g transform="translate(45.581353, 33.518679)"><g><path d="M 0 -24.40625 C 0.695312 -24.40625 1.472656 -24.648438 2.328125 -25.140625 C 3.191406 -25.628906 4.066406 -26.238281 4.953125 -26.96875 C 5.835938 -27.707031 6.675781 -28.4375 7.46875 -29.15625 C 8.257812 -29.875 8.957031 -30.476562 9.5625 -30.96875 C 10.164062 -31.457031 10.601562 -31.703125 10.875 -31.703125 C 11.320312 -31.703125 11.546875 -31.421875 11.546875 -30.859375 L 11.546875 -24.40625 L 14.546875 -24.40625 L 14.546875 -22.671875 L 11.546875 -22.671875 L 11.546875 -8.578125 C 11.546875 -7.671875 11.554688 -6.765625 11.578125 -5.859375 C 11.597656 -4.953125 11.722656 -4.140625 11.953125 -3.421875 C 12.191406 -2.703125 12.613281 -2.144531 13.21875 -1.75 C 13.351562 -1.65625 13.492188 -1.609375 13.640625 -1.609375 C 13.796875 -1.609375 13.957031 -1.582031 14.125 -1.53125 C 14.070312 -1.113281 13.84375 -0.75 13.4375 -0.4375 C 13.03125 -0.125 12.546875 0.109375 11.984375 0.265625 C 11.429688 0.429688 10.878906 0.515625 10.328125 0.515625 C 8.648438 0.515625 7.304688 0.238281 6.296875 -0.3125 C 5.285156 -0.875 4.515625 -1.625 3.984375 -2.5625 C 3.460938 -3.5 3.113281 -4.550781 2.9375 -5.71875 C 2.769531 -6.882812 2.6875 -8.054688 2.6875 -9.234375 L 2.6875 -20.4375 C 2.6875 -20.78125 2.664062 -21.125 2.625 -21.46875 C 2.59375 -21.820312 2.46875 -22.109375 2.25 -22.328125 C 2.03125 -22.554688 1.640625 -22.671875 1.078125 -22.671875 L 0 -22.671875 Z M 0 -24.40625 "/></g></g></g><g fill="#06e0d9" fill-opacity="1"><g transform="translate(59.423357, 33.518679)"><g><path d="M 0.875 -5.4375 C 0.875 -7.300781 1.242188 -8.9375 1.984375 -10.34375 C 2.734375 -11.75 3.738281 -12.957031 5 -13.96875 C 6.269531 -14.976562 7.6875 -15.804688 9.25 -16.453125 C 10.820312 -17.109375 12.421875 -17.609375 14.046875 -17.953125 C 14.566406 -18.078125 14.90625 -18.289062 15.0625 -18.59375 C 15.226562 -18.894531 15.3125 -19.195312 15.3125 -19.5 C 15.3125 -20.007812 15.234375 -20.535156 15.078125 -21.078125 C 14.929688 -21.628906 14.640625 -22.09375 14.203125 -22.46875 C 13.773438 -22.851562 13.132812 -23.035156 12.28125 -23.015625 C 11.394531 -22.992188 10.585938 -22.738281 9.859375 -22.25 C 9.140625 -21.757812 8.484375 -21.160156 7.890625 -20.453125 C 7.304688 -19.742188 6.753906 -19.035156 6.234375 -18.328125 C 5.722656 -17.617188 5.238281 -17.023438 4.78125 -16.546875 C 4.332031 -16.066406 3.890625 -15.828125 3.453125 -15.828125 C 3.171875 -15.828125 2.921875 -15.9375 2.703125 -16.15625 C 2.484375 -16.382812 2.375 -16.648438 2.375 -16.953125 L 2.375 -18.875 C 2.375 -19.476562 2.378906 -20.066406 2.390625 -20.640625 C 2.398438 -21.222656 2.625 -21.722656 3.0625 -22.140625 C 4.25 -23.285156 5.707031 -24.035156 7.4375 -24.390625 C 9.175781 -24.753906 10.960938 -24.9375 12.796875 -24.9375 C 14.796875 -24.9375 16.539062 -24.628906 18.03125 -24.015625 C 19.519531 -23.398438 20.742188 -22.582031 21.703125 -21.5625 C 22.671875 -20.550781 23.394531 -19.429688 23.875 -18.203125 C 24.351562 -16.972656 24.59375 -15.726562 24.59375 -14.46875 L 24.59375 -4.109375 C 24.59375 -3.109375 24.675781 -2.289062 24.84375 -1.65625 C 25.019531 -1.019531 25.34375 -0.46875 25.8125 0 L 17.265625 0 C 16.242188 0 15.640625 -0.5 15.453125 -1.5 C 15.398438 -1.800781 15.296875 -2.078125 15.140625 -2.328125 C 14.992188 -2.585938 14.796875 -2.71875 14.546875 -2.71875 C 14.171875 -2.71875 13.800781 -2.554688 13.4375 -2.234375 C 13.082031 -1.910156 12.648438 -1.53125 12.140625 -1.09375 C 11.628906 -0.664062 10.972656 -0.289062 10.171875 0.03125 C 9.367188 0.351562 8.335938 0.515625 7.078125 0.515625 C 5.960938 0.515625 4.929688 0.25 3.984375 -0.28125 C 3.046875 -0.8125 2.289062 -1.523438 1.71875 -2.421875 C 1.15625 -3.316406 0.875 -4.320312 0.875 -5.4375 Z M 14.046875 -15.6875 C 13.304688 -15.6875 12.554688 -15.398438 11.796875 -14.828125 C 11.046875 -14.265625 10.425781 -13.460938 9.9375 -12.421875 C 9.445312 -11.390625 9.203125 -10.15625 9.203125 -8.71875 C 9.203125 -7.90625 9.300781 -7.128906 9.5 -6.390625 C 9.695312 -5.660156 10.035156 -5.0625 10.515625 -4.59375 C 10.992188 -4.132812 11.660156 -3.90625 12.515625 -3.90625 C 13.472656 -3.90625 14.179688 -4.28125 14.640625 -5.03125 C 15.109375 -5.789062 15.34375 -6.738281 15.34375 -7.875 C 15.34375 -8.96875 15.335938 -9.914062 15.328125 -10.71875 C 15.316406 -11.519531 15.3125 -12.457031 15.3125 -13.53125 C 15.3125 -14.320312 15.21875 -14.878906 15.03125 -15.203125 C 14.84375 -15.523438 14.515625 -15.6875 14.046875 -15.6875 Z M 14.046875 -15.6875 "/></g></g></g><g fill="#06e0d9" fill-opacity="1"><g transform="translate(85.39937, 33.518679)"><g><path d="M 0.34375 0 C 0.8125 -0.46875 1.128906 -1.019531 1.296875 -1.65625 C 1.472656 -2.289062 1.5625 -3.109375 1.5625 -4.109375 L 1.5625 -20.296875 C 1.5625 -21.296875 1.472656 -22.113281 1.296875 -22.75 C 1.128906 -23.394531 0.8125 -23.945312 0.34375 -24.40625 L 8.890625 -24.40625 C 9.640625 -24.40625 10.144531 -24.144531 10.40625 -23.625 C 10.675781 -23.101562 10.8125 -22.398438 10.8125 -21.515625 L 10.8125 -20.921875 C 10.8125 -20.503906 10.832031 -20.257812 10.875 -20.1875 C 10.925781 -20.125 10.988281 -20.09375 11.0625 -20.09375 C 11.3125 -20.09375 11.554688 -20.253906 11.796875 -20.578125 C 12.046875 -20.898438 12.332031 -21.304688 12.65625 -21.796875 C 12.976562 -22.285156 13.394531 -22.765625 13.90625 -23.234375 C 14.425781 -23.710938 15.0625 -24.113281 15.8125 -24.4375 C 16.570312 -24.769531 17.5 -24.9375 18.59375 -24.9375 C 19.21875 -24.9375 19.863281 -24.851562 20.53125 -24.6875 C 21.207031 -24.53125 21.78125 -24.300781 22.25 -24 C 22.71875 -23.695312 22.953125 -23.3125 22.953125 -22.84375 C 22.953125 -22.632812 22.75 -22.140625 22.34375 -21.359375 C 21.9375 -20.578125 21.507812 -19.75 21.0625 -18.875 C 20.570312 -17.914062 20.128906 -17.046875 19.734375 -16.265625 C 19.335938 -15.484375 18.976562 -15.09375 18.65625 -15.09375 C 18.28125 -15.09375 17.988281 -15.25 17.78125 -15.5625 C 17.570312 -15.882812 17.351562 -16.242188 17.125 -16.640625 C 16.894531 -17.035156 16.550781 -17.390625 16.09375 -17.703125 C 15.644531 -18.015625 15 -18.171875 14.15625 -18.171875 C 13.175781 -18.171875 12.445312 -17.921875 11.96875 -17.421875 C 11.5 -16.921875 11.1875 -16.320312 11.03125 -15.625 C 10.882812 -14.925781 10.8125 -14.25 10.8125 -13.59375 L 10.8125 -4.109375 C 10.8125 -3.109375 10.894531 -2.289062 11.0625 -1.65625 C 11.238281 -1.019531 11.5625 -0.46875 12.03125 0 Z M 0.34375 0 "/></g></g></g><g fill="#06e0d9" fill-opacity="1"><g transform="translate(108.691402, 33.518679)"><g/></g></g></svg>